<?xml version="1.0" encoding="UTF-8"?> <svg xmlns="http://www.w3.org/2000/svg" id="Layer_1" data-name="Layer 1" width="550" height="150" viewBox="0 0 550 150"> <defs> <style>.cls-1{fill:#fff;}.cls-2{fill:#f48024;}</style> </defs> <path class="cls-1" d="M71.8643,127.4993H38.4216a9.0757,9.0757,0,0,1-7.3281-3.0477,10.3134,10.3134,0,0,1-2.5927-6.8813V75.6368H61.2479l.0379-20.1343H28.5008V44.0271a10.3063,10.3063,0,0,1,2.5927-6.8823,9.1133,9.1133,0,0,1,7.3281-3.0479H71.8643V14.02H38.4216a28.7659,28.7659,0,0,0-21.3135,8.8008A29.076,29.076,0,0,0,8.42,44.0271V117.57a29.1016,29.1016,0,0,0,8.6883,21.2124,28.7964,28.7964,0,0,0,21.3135,8.7958H71.8643Z"></path> <path class="cls-1" d="M224.6825,64.3a29.0826,29.0826,0,0,0-8.6875,21.204v62.0741h20.0842V85.5044a10.3017,10.3017,0,0,1,2.5938-6.8811,9.1016,9.1016,0,0,1,7.327-3.05h10.1542V55.5025H246A28.773,28.773,0,0,0,224.6825,64.3Z"></path> <path class="cls-1" d="M383.1985,64.3033a29.0745,29.0745,0,0,0-8.6936,21.201V117.57a29.118,29.118,0,0,0,8.6936,21.2124,28.7984,28.7984,0,0,0,21.3167,8.7958h18.6573V127.4993H404.5152a9.0807,9.0807,0,0,1-7.3291-3.0477,10.3187,10.3187,0,0,1-2.6041-6.8813V85.5044a10.3217,10.3217,0,0,1,2.6041-6.8811,9.1132,9.1132,0,0,1,7.3291-3.05h18.6573V55.5025H404.5152A28.7561,28.7561,0,0,0,383.1985,64.3033Z"></path> <path class="cls-1" d="M482.0043,63.8523a29.9551,29.9551,0,0,0-20.9708-8.35h-9.9311v-41.48H431.0253V147.5784h20.0771V75.5733h9.9311a10.1272,10.1272,0,0,1,7.1,2.8269,9.2778,9.2778,0,0,1,3.054,7.1042v62.0741h20.0666V85.5044A29.1625,29.1625,0,0,0,482.0043,63.8523Z"></path> <path class="cls-1" d="M300.7552,75.6407V55.5025H284.0861v-23.28l-20.0771,4.1616v82.1746a28.746,28.746,0,0,0,8.8019,21.3125c5.8666,5.7889,11.3753,8.6915,23.5606,8.6915h4.3734V128.604h-3.8824c-8.5176,0-12.7764-6.0263-12.7764-14.4456V75.6407Z"></path> <path class="cls-1" d="M208.1422,110.7137V84.5184c0-.88-.0553-1.7264-.11-2.5691a31.5,31.5,0,0,0-2.09-9.6969,26.7616,26.7616,0,0,0-7.2738-10.2893,29.591,29.591,0,0,0-13.95-6.78c-.3069-.0643-.6056-.142-.9174-.1952-.1586-.0256-.3253-.0358-.4847-.06a34.9237,34.9237,0,0,0-5.2908-.4093c-.0195,0-.0348.0042-.0543.0042s-.0379-.0042-.0553-.0042q-12.1873,0-20.532,7.4447a27.0922,27.0922,0,0,0-7.3025,10.2893,33.2708,33.2708,0,0,0-2.28,12.6179v36.0179a26.6767,26.6767,0,0,0,10.1355,20.6682c.535.4418,1.0873.8469,1.6416,1.2478.3643.2618.7283.5195,1.1068.761.2321.1533.47.2985.7067.4478a29.71,29.71,0,0,0,10.4036,3.9785c.0256.0042.05.01.0746.0124.7446.1391,1.5065.2331,2.27.3171.3037.0348.6.0859.9082.11.6056.0532,1.2212.0635,1.8359.0838.3446.0124.6831.0471,1.0318.0471.0348,0,.0677-.0021.1014-.0021.0419,0,.0817.0021.1238.0021q12.1779,0,20.527-7.4479a26.9985,26.9985,0,0,0,6.0158-7.5807,25.7879,25.7879,0,0,0,3.27-11.226c.1175-1.217.1881-2.4629.1881-3.7555h-20.076a9.18,9.18,0,0,1-3.0469,7.2269,10.351,10.351,0,0,1-7.1031,2.7061q-9.9273,0-9.929-9.933v-7.8385ZM167.9873,84.86q0-9.8123,9.9271-9.8094h.1114q9.93,0,9.9269,9.8094v5.7684H167.9873Z"></path> <path class="cls-1" d="M366.4354,110.7137V84.5184c0-.88-.0572-1.7264-.11-2.5691a31.5,31.5,0,0,0-2.0927-9.6969,26.74,26.74,0,0,0-7.2738-10.2893,29.5709,29.5709,0,0,0-13.9465-6.78c-.309-.0643-.6077-.142-.9206-.1952-.1554-.0256-.3232-.0358-.4826-.06a34.8975,34.8975,0,0,0-5.2919-.4093c-.0184,0-.0348.0042-.0532.0042-.0205,0-.0388-.0042-.0572-.0042q-12.1845,0-20.5312,7.4447a27.1337,27.1337,0,0,0-7.3025,10.2893A33.25,33.25,0,0,0,306.0919,84.87v36.0179A26.6724,26.6724,0,0,0,316.23,141.5564c.5358.4418,1.0861.8469,1.6405,1.2478.3661.2618.7281.5195,1.1087.761.2289.1533.4684.2985.7057.4478a29.7037,29.7037,0,0,0,10.4036,3.9785c.0245.0042.049.01.0735.0124.7467.1391,1.5056.2331,2.2706.3171.3048.0348.5993.0859.9082.11.6035.0532,1.2212.0635,1.837.0838.3435.0124.681.0471,1.0289.0471.0367,0,.0674-.0021.1043-.0021.043,0,.0817.0021.1227.0021q12.1811,0,20.5249-7.4479a26.9689,26.9689,0,0,0,6.0179-7.5807,25.8028,25.8028,0,0,0,3.271-11.226c.1165-1.217.1881-2.4629.1881-3.7555H346.3583a9.181,9.181,0,0,1-3.0477,7.2269,10.3488,10.3488,0,0,1-7.1042,2.7061q-9.9229,0-9.9271-9.933v-7.8385ZM326.2794,84.86q0-9.8123,9.9271-9.8094h.11q9.932,0,9.9271,9.8094v5.7684H326.2794Z"></path> <path class="cls-1" d="M139.9133,147.7994V85.7622q0-14.2019-9.4719-22.5563a30.5866,30.5866,0,0,0-20.7541-7.4437H79.6813v92.0759H99.76V75.8575l10.1489-.0256q9.9276,0,9.9292,9.93v62.0372Z"></path> <path class="cls-1" d="M71.8643,127.4993H38.4216a9.0757,9.0757,0,0,1-7.3281-3.0477,10.3134,10.3134,0,0,1-2.5927-6.8813V75.6368H61.2479l.0379-20.1343H28.5008V44.0271a10.3063,10.3063,0,0,1,2.5927-6.8823,9.1133,9.1133,0,0,1,7.3281-3.0479H71.8643V14.02H38.4216a28.7659,28.7659,0,0,0-21.3135,8.8008A29.076,29.076,0,0,0,8.42,44.0271V117.57a29.1016,29.1016,0,0,0,8.6883,21.2124,28.7964,28.7964,0,0,0,21.3135,8.7958H71.8643Z"></path> <path class="cls-1" d="M224.6825,64.3a29.0826,29.0826,0,0,0-8.6875,21.204v62.0741h20.0842V85.5044a10.3017,10.3017,0,0,1,2.5938-6.8811,9.1016,9.1016,0,0,1,7.327-3.05h10.1542V55.5025H246A28.773,28.773,0,0,0,224.6825,64.3Z"></path> <path class="cls-1" d="M383.1985,64.3033a29.0745,29.0745,0,0,0-8.6936,21.201V117.57a29.118,29.118,0,0,0,8.6936,21.2124,28.7984,28.7984,0,0,0,21.3167,8.7958h18.6573V127.4993H404.5152a9.0807,9.0807,0,0,1-7.3291-3.0477,10.3187,10.3187,0,0,1-2.6041-6.8813V85.5044a10.3217,10.3217,0,0,1,2.6041-6.8811,9.1132,9.1132,0,0,1,7.3291-3.05h18.6573V55.5025H404.5152A28.7561,28.7561,0,0,0,383.1985,64.3033Z"></path> <path class="cls-1" d="M482.0043,63.8523a29.9551,29.9551,0,0,0-20.9708-8.35h-9.9311v-41.48H431.0253V147.5784h20.0771V75.5733h9.9311a10.1272,10.1272,0,0,1,7.1,2.8269,9.2778,9.2778,0,0,1,3.054,7.1042v62.0741h20.0666V85.5044A29.1625,29.1625,0,0,0,482.0043,63.8523Z"></path> <path class="cls-1" d="M300.7552,75.6407V55.5025H284.0861v-23.28l-20.0771,4.1616v82.1746a28.746,28.746,0,0,0,8.8019,21.3125c5.8666,5.7889,11.3753,8.6915,23.5606,8.6915h4.3734V128.604h-3.8824c-8.5176,0-12.7764-6.0263-12.7764-14.4456V75.6407Z"></path> <path class="cls-1" d="M208.1422,110.7137V84.5184c0-.88-.0553-1.7264-.11-2.5691a31.5,31.5,0,0,0-2.09-9.6969,26.7616,26.7616,0,0,0-7.2738-10.2893,29.591,29.591,0,0,0-13.95-6.78c-.3069-.0643-.6056-.142-.9174-.1952-.1586-.0256-.3253-.0358-.4847-.06a34.9237,34.9237,0,0,0-5.2908-.4093c-.0195,0-.0348.0042-.0543.0042s-.0379-.0042-.0553-.0042q-12.1873,0-20.532,7.4447a27.0922,27.0922,0,0,0-7.3025,10.2893,33.2708,33.2708,0,0,0-2.28,12.6179v36.0179a26.6767,26.6767,0,0,0,10.1355,20.6682c.535.4418,1.0873.8469,1.6416,1.2478.3643.2618.7283.5195,1.1068.761.2321.1533.47.2985.7067.4478a29.71,29.71,0,0,0,10.4036,3.9785c.0256.0042.05.01.0746.0124.7446.1391,1.5065.2331,2.27.3171.3037.0348.6.0859.9082.11.6056.0532,1.2212.0635,1.8359.0838.3446.0124.6831.0471,1.0318.0471.0348,0,.0677-.0021.1014-.0021.0419,0,.0817.0021.1238.0021q12.1779,0,20.527-7.4479a26.9985,26.9985,0,0,0,6.0158-7.5807,25.7879,25.7879,0,0,0,3.27-11.226c.1175-1.217.1881-2.4629.1881-3.7555h-20.076a9.18,9.18,0,0,1-3.0469,7.2269,10.351,10.351,0,0,1-7.1031,2.7061q-9.9273,0-9.929-9.933v-7.8385ZM167.9873,84.86q0-9.8123,9.9271-9.8094h.1114q9.93,0,9.9269,9.8094v5.7684H167.9873Z"></path> <path class="cls-1" d="M366.4354,110.7137V84.5184c0-.88-.0572-1.7264-.11-2.5691a31.5,31.5,0,0,0-2.0927-9.6969,26.74,26.74,0,0,0-7.2738-10.2893,29.5709,29.5709,0,0,0-13.9465-6.78c-.309-.0643-.6077-.142-.9206-.1952-.1554-.0256-.3232-.0358-.4826-.06a34.8975,34.8975,0,0,0-5.2919-.4093c-.0184,0-.0348.0042-.0532.0042-.0205,0-.0388-.0042-.0572-.0042q-12.1845,0-20.5312,7.4447a27.1337,27.1337,0,0,0-7.3025,10.2893A33.25,33.25,0,0,0,306.0919,84.87v36.0179A26.6724,26.6724,0,0,0,316.23,141.5564c.5358.4418,1.0861.8469,1.6405,1.2478.3661.2618.7281.5195,1.1087.761.2289.1533.4684.2985.7057.4478a29.7037,29.7037,0,0,0,10.4036,3.9785c.0245.0042.049.01.0735.0124.7467.1391,1.5056.2331,2.2706.3171.3048.0348.5993.0859.9082.11.6035.0532,1.2212.0635,1.837.0838.3435.0124.681.0471,1.0289.0471.0367,0,.0674-.0021.1043-.0021.043,0,.0817.0021.1227.0021q12.1811,0,20.5249-7.4479a26.9689,26.9689,0,0,0,6.0179-7.5807,25.8028,25.8028,0,0,0,3.271-11.226c.1165-1.217.1881-2.4629.1881-3.7555H346.3583a9.181,9.181,0,0,1-3.0477,7.2269,10.3488,10.3488,0,0,1-7.1042,2.7061q-9.9229,0-9.9271-9.933v-7.8385ZM326.2794,84.86q0-9.8123,9.9271-9.8094h.11q9.932,0,9.9271,9.8094v5.7684H326.2794Z"></path> <path class="cls-1" d="M139.9133,147.7994V85.7622q0-14.2019-9.4719-22.5563a30.5866,30.5866,0,0,0-20.7541-7.4437H79.6813v92.0759H99.76V75.8575l10.1489-.0256q9.9276,0,9.9292,9.93v62.0372Z"></path> <path class="cls-2" d="M537.25,46.0848l6.4619-2.9742A93.6593,93.6593,0,0,0,492.095,2.0382l-1.8,6.8505A86.5793,86.5793,0,0,1,537.25,46.0848Z"></path> <path class="cls-2" d="M521.5139,53.3312l6.325-2.912a67.6587,67.6587,0,0,0-40.1294-31.6732l-1.7653,6.7114A60.6984,60.6984,0,0,1,521.5139,53.3312Z"></path> <path class="cls-2" d="M504.6117,61.1124l6.2839-2.8935a46.9071,46.9071,0,0,0-27.7887-21.95l-1.749,6.6563A39.9831,39.9831,0,0,1,504.6117,61.1124Z"></path> </svg> 